# Blender 5.1.2
# www.blender.org
mtllib foto_frame.mtl
o Cube
v 0.499644 1.944366 -1.287416
v 0.499644 0.010435 -0.777600
v 0.312210 1.838488 -0.953751
v 0.312210 0.267042 -0.539492
v -1.000000 1.944366 -1.287416
v -1.000000 0.010435 -0.777600
v -0.812566 1.838488 -0.953751
v -0.812566 0.267042 -0.539492
v -0.812566 0.236977 -0.653541
v -0.812566 1.808422 -1.067801
v 0.312210 1.808422 -1.067801
v 0.312210 0.236977 -0.653541
v -1.000000 0.074449 -0.534770
v -0.955472 0.128857 -0.503064
v -0.955472 1.976673 -0.990179
v -1.000000 2.008379 -1.044587
v 0.499644 2.008379 -1.044587
v 0.455116 1.976673 -0.990179
v 0.455116 0.128857 -0.503064
v 0.499644 0.074449 -0.534770
v -0.154784 0.927633 -1.019389
v -0.345571 0.927633 -1.019389
v -0.154784 1.100419 -1.064938
v -0.345571 1.100419 -1.064938
v -0.102841 0.002528 -1.327545
v -0.397514 0.002528 -1.327545
v -0.102841 0.002177 -1.403314
v -0.397514 0.002177 -1.403314
vn -0.0000 0.9670 -0.2549
vn -0.0000 -0.2549 -0.9670
vn -0.0000 0.2549 0.9670
vn -1.0000 -0.0000 -0.0000
vn -0.0000 -0.9670 0.2549
vn 1.0000 -0.0000 -0.0000
vn -0.7071 0.1802 0.6837
vn 0.7071 0.1802 0.6837
vn -0.0000 0.8640 0.5035
vn -0.0000 -0.5035 0.8640
vn -0.0000 0.2944 -0.9557
vn -0.0000 -1.0000 0.0046
vn 0.9981 0.0352 0.0501
vn -0.9981 0.0352 0.0501
vn -0.0000 -0.3160 0.9487
vt 0.398429 0.968754
vt 0.398429 0.781246
vt 0.625000 0.500000
vt 0.375000 0.500000
vt 0.601571 0.781246
vt 0.601571 0.968754
vt 0.380566 0.000000
vt 0.619434 0.000000
vt 0.625000 0.037652
vt 0.375000 0.037652
vt 0.619434 0.757423
vt 0.377319 0.755567
vt 0.375000 0.712348
vt 0.625000 0.721761
vt 0.625000 1.000000
vt 0.619434 0.992577
vt 0.125000 0.712348
vt 0.132423 0.750000
vt 0.125000 0.500000
vt 0.625000 0.250000
vt 0.375000 0.250000
vt 0.380566 0.992577
vt 0.875000 0.500000
vt 0.875000 0.712348
vt 0.625000 0.250000
s 0
usemtl Material
f 8/1/1 4/2/1 12/2/1 9/1/1
f 1/3/2 2/4/2 21/4/2 23/3/2
f 4/2/4 3/5/4 11/5/4 12/2/4
f 3/5/5 7/6/5 10/6/5 11/5/5
f 7/6/6 8/1/6 9/1/6 10/6/6
f 14/7/7 15/8/7 16/9/7 13/10/7
f 18/11/8 19/12/8 20/13/8 17/14/8
f 17/14/9 16/15/9 15/16/9 18/11/9
f 13/17/10 20/13/10 19/12/10 14/18/10
f 6/19/5 2/4/5 20/13/5 13/17/5
f 13/10/4 16/9/4 5/20/4 6/21/4
f 4/2/3 8/1/3 14/22/3 19/12/3
f 8/1/3 7/6/3 15/16/3 14/22/3
f 1/3/1 5/23/1 16/24/1 17/14/1
f 7/6/3 3/5/3 18/11/3 15/16/3
f 3/5/3 4/2/3 19/12/3 18/11/3
f 2/4/6 1/3/6 17/14/6 20/13/6
f 24/23/11 23/3/11 27/3/11 28/23/11
f 6/21/2 5/20/2 24/20/2 22/21/2
f 2/4/2 6/19/2 22/19/2 21/4/2
f 5/23/2 1/3/2 23/3/2 24/23/2
f 26/21/12 28/25/12 27/3/12 25/4/12
f 23/3/13 21/4/13 25/4/13 27/3/13
f 22/21/14 24/20/14 28/25/14 26/21/14
f 21/4/15 22/19/15 26/19/15 25/4/15
usemtl Material.001
f 12/2/3 11/5/3 10/6/3 9/1/3
